<svg width="33" height="33" viewBox="0 0 33 33" fill="none" xmlns="http://www.w3.org/2000/svg">
<path fill-rule="evenodd" clip-rule="evenodd" d="M9 14.3664C9 13.8141 9.44772 13.3664 10 13.3664H23C23.5523 13.3664 24 13.8141 24 14.3664C24 14.9187 23.5523 15.3664 23 15.3664H10C9.44772 15.3664 9 14.9187 9 14.3664Z" fill="white"/>
<path fill-rule="evenodd" clip-rule="evenodd" d="M9 18.3664C9 17.8141 9.44772 17.3664 10 17.3664H23C23.5523 17.3664 24 17.8141 24 18.3664C24 18.9187 23.5523 19.3664 23 19.3664H10C9.44772 19.3664 9 18.9187 9 18.3664Z" fill="white"/>
<path fill-rule="evenodd" clip-rule="evenodd" d="M4.08579 6.95218C4.46086 6.57711 4.96957 6.36639 5.5 6.36639H27.5C28.0304 6.36639 28.5391 6.57711 28.9142 6.95218C29.2893 7.32725 29.5 7.83596 29.5 8.36639V27.3664C29.5 27.713 29.3205 28.0348 29.0257 28.217C28.7309 28.3993 28.3628 28.4158 28.0528 28.2608L24.5 26.4844L20.9472 28.2608C20.6657 28.4016 20.3343 28.4016 20.0528 28.2608L16.5 26.4844L12.9472 28.2608C12.6657 28.4016 12.3343 28.4016 12.0528 28.2608L8.5 26.4844L4.94721 28.2608C4.63723 28.4158 4.26909 28.3993 3.97427 28.217C3.67945 28.0348 3.5 27.713 3.5 27.3664V8.36639C3.5 7.83596 3.71071 7.32725 4.08579 6.95218ZM27.5 8.36639L5.5 8.36639L5.5 25.7484L8.05279 24.472C8.33431 24.3312 8.66569 24.3312 8.94721 24.472L12.5 26.2484L16.0528 24.472C16.3343 24.3312 16.6657 24.3312 16.9472 24.472L20.5 26.2484L24.0528 24.472C24.3343 24.3312 24.6657 24.3312 24.9472 24.472L27.5 25.7484V8.36639Z" fill="white"/>
</svg>
